<svg width="250" height="250" viewBox="0 0 250 250" fill="none" xmlns="http://www.w3.org/2000/svg">
<path d="M247.021 127.339C247.021 117.096 246.19 109.622 244.391 101.871H127.433V148.1H196.085C194.701 159.589 187.227 176.89 170.617 188.516L170.384 190.064L207.364 218.712L209.926 218.968C233.456 197.237 247.021 165.263 247.021 127.339Z" fill="#4285F4"/>
<path d="M127.433 249.141C161.067 249.141 189.303 238.068 209.927 218.968L170.617 188.516C160.098 195.852 145.98 200.973 127.433 200.973C94.4915 200.973 66.5325 179.243 56.5659 149.208L55.105 149.332L16.6526 179.091L16.1498 180.489C36.6345 221.181 78.7119 249.141 127.433 249.141Z" fill="#34A853"/>
<path d="M56.5657 149.208C53.9359 141.457 52.414 133.152 52.414 124.571C52.414 115.988 53.9359 107.684 56.4274 99.9331L56.3577 98.2823L17.4236 68.0457L16.1497 68.6516C7.70701 85.538 2.86255 104.501 2.86255 124.571C2.86255 144.64 7.70701 163.602 16.1497 180.489L56.5657 149.208Z" fill="#FBBC05"/>
<path d="M127.433 48.167C150.824 48.167 166.603 58.271 175.6 66.7148L210.757 32.3884C189.165 12.3187 161.067 0 127.433 0C78.7118 0 36.6345 27.959 16.1498 68.6518L56.4274 99.9333C66.5324 69.898 94.4913 48.167 127.433 48.167Z" fill="#EB4335"/>
</svg>
