<svg width="350" height="114" viewBox="0 0 350 114" fill="none" xmlns="http://www.w3.org/2000/svg">
<path d="M43.1055 0H46.2179C57.0232 0.234393 67.6523 4.57065 75.2865 12.247C72.4677 15.1183 69.5902 17.8724 66.8302 20.7437C62.5433 16.8763 57.3755 13.8878 51.738 12.833C43.3991 11.075 34.4142 12.6572 27.426 17.4036C19.7919 22.3845 14.6241 30.8226 13.5083 39.8467C12.2751 48.7536 14.8003 58.1294 20.614 65.0439C26.1928 71.7827 34.7079 76.0018 43.5165 76.2948C51.738 76.7636 60.3117 74.2438 66.3016 68.5012C70.9996 64.458 73.1724 58.3051 73.8771 52.3281C64.1288 52.3281 54.3806 52.3867 44.6323 52.3281V40.2569H85.6807C87.7948 53.2071 84.7411 67.798 74.8754 77.0566C68.2983 83.6195 59.196 87.487 49.9175 88.2488C40.9327 89.1278 31.6542 87.4284 23.6677 83.0922C14.0956 77.9941 6.4614 69.3802 2.70303 59.2427C-0.820434 49.9256 -0.879158 39.3779 2.40941 30.0022C5.40436 21.4469 11.1594 13.8878 18.5586 8.61393C25.6643 3.39869 34.2968 0.527383 43.1055 0Z" fill="#3780FF"/>
<path d="M278.591 3.04736H291.158V86.7254C286.989 86.7254 282.761 86.784 278.591 86.6668C278.65 58.8327 278.591 30.9401 278.591 3.04736Z" fill="#38B137"/>
<path d="M113.634 32.0535C121.386 30.5885 129.783 32.2293 136.184 36.8585C141.998 40.9604 146.05 47.4062 147.283 54.4379C148.869 62.5831 146.872 71.49 141.587 77.9358C135.891 85.1433 126.553 89.0108 117.451 88.4248C109.112 87.956 101.008 83.7956 96.0753 76.9982C90.4964 69.4976 89.1458 59.1844 92.1995 50.3947C95.2531 40.9604 103.886 33.7528 113.634 32.0535ZM115.396 43.1871C112.225 44.0075 109.288 45.824 107.174 48.4023C101.478 55.1997 101.83 66.2747 108.114 72.6033C111.696 76.2364 117.099 77.9358 122.09 76.9396C126.73 76.1192 130.782 73.0135 133.013 68.9117C136.889 61.9385 135.773 52.3284 129.842 46.8788C126.025 43.3629 120.446 41.898 115.396 43.1871Z" fill="#FA3913"/>
<path d="M175.882 32.0534C184.749 30.3541 194.439 32.8152 201.075 39.0266C211.88 48.6952 213.055 66.802 203.835 77.9356C198.256 84.9674 189.212 88.8348 180.286 88.4247C171.771 88.1903 163.374 83.9712 158.323 76.9981C152.627 69.3217 151.394 58.7741 154.624 49.8086C157.853 40.6673 166.31 33.6942 175.882 32.0534ZM177.644 43.187C174.472 44.0074 171.536 45.8239 169.422 48.3437C163.785 55.0238 164.019 65.923 170.068 72.3102C173.65 76.1191 179.229 77.9942 184.397 76.9395C188.977 76.0605 193.088 73.0134 195.32 68.9115C199.137 61.8798 198.021 52.2697 192.031 46.8201C188.214 43.3042 182.635 41.8979 177.644 43.187Z" fill="#FCBD06"/>
<path d="M228.675 35.452C235.428 31.2329 244.413 30.061 251.695 33.694C253.985 34.6902 255.864 36.3895 257.685 38.0889C257.744 36.5067 257.685 34.866 257.744 33.2252C261.678 33.2838 265.613 33.2252 269.606 33.2838V84.9673C269.547 92.7609 267.551 101.023 261.913 106.707C255.747 112.977 246.292 114.911 237.777 113.622C228.675 112.274 220.747 105.652 217.224 97.2729C220.747 95.5736 224.447 94.2258 228.088 92.6437C230.143 97.4487 234.312 101.551 239.539 102.488C244.765 103.426 250.814 102.137 254.22 97.8003C257.861 93.3469 257.861 87.2527 257.685 81.803C254.983 84.44 251.871 86.7839 248.113 87.6629C239.95 89.9482 230.965 87.1355 224.682 81.6272C218.339 76.119 214.581 67.6223 214.933 59.1842C215.11 49.6327 220.512 40.4328 228.675 35.452ZM240.831 42.9525C237.249 43.5385 233.901 45.5308 231.611 48.285C226.091 54.8479 226.091 65.337 231.67 71.7828C234.841 75.5916 239.95 77.7012 244.883 77.1738C249.522 76.705 253.809 73.7751 256.099 69.7318C259.975 62.8759 259.329 53.5588 254.103 47.5818C250.873 43.8901 245.705 42.0736 240.831 42.9525Z" fill="#3780FF"/>
</svg>
